<?xml version="1.0" standalone="no"?>
<!DOCTYPE svg PUBLIC "-//W3C//DTD SVG 20010904//EN"
 "http://www.w3.org/TR/2001/REC-SVG-20010904/DTD/svg10.dtd">
<svg version="1.0" xmlns="http://www.w3.org/2000/svg"
 width="129.000000pt" height="129.000000pt" viewBox="0 0 129.000000 129.000000"
 preserveAspectRatio="xMidYMid meet">

<g transform="translate(0.000000,129.000000) scale(0.100000,-0.100000)"
fill="#000000" stroke="none">
<path d="M224 1130 c-28 -11 -54 -48 -54 -76 0 -31 47 -84 73 -84 20 0 27 -21
90 -266 l68 -266 -34 -32 c-20 -18 -40 -50 -47 -74 -35 -115 92 -221 200 -165
65 34 101 126 71 182 -8 15 14 27 166 94 l176 77 29 -25 c54 -45 130 -29 163
35 20 39 19 69 -4 106 -26 43 -72 61 -125 46 -47 -12 -18 -27 -441 220 -198
116 -210 125 -216 158 -8 37 -50 80 -77 79 -9 0 -27 -4 -38 -9z m710 -496
c-10 -14 -14 -39 -13 -64 l3 -42 -173 -75 -173 -75 -21 20 c-28 26 -70 42
-111 42 l-33 0 -67 261 -66 261 27 26 28 27 307 -179 c307 -178 307 -178 292
-202z"/>
</g>
</svg>
